DBRep_DrawableShape

CASCADE Topology V1, (c) Matra-Datavision
Locations 9
1
              1               0               0               0 
              0               1               0               0 
              0               0               1               0 
2  1 -1 0
1
              1               0              -0               0 
             -0               0              -1               0 
              0               1               0               0 
2  3 -1 0
2  1 -1 3 -1 0
1
              1               0               0               0 
              0               1               0              -5 
              0               0               1           2e-15 
2  3 1 6 1 0
2  6 -1 3 -1 0
2  1 -1 6 -1 3 -1 0
Curve2ds 60
1 0 0 0 -1 
1 1.570796326794897 0 0 -1 
1 5 0 0 -1 
1 0 0 -1.1e-16 -1 
1 0 0 1 0 
1 6.5396907400167379 -94.999999999999986 0 -1 
1 0 -5 1 0 
1 6.5396907400167379 -94.999999999999986 0 -1 
1 7.9999999999999982 0 -1.1e-16 -1 
1 0 0 0 -1 
1 0 0 1 0 
1 6.5396907400167379 -99.999999999999986 1 0 
1 -4.4e-16 -5 1 0 
1 6.5396907400167379 -99.999999999999986 1 0 
1 199.99999999999997 0 0 -1 
1 0 0 1.1e-16 -1 
1 0 0 1 0 
1 14.539690740016736 -99.999999999999986 0 1 
1 0 -5 1 0 
1 14.539690740016736 -99.999999999999986 0 1 
1 7.9999999999999982 0 1.1e-16 -1 
1 0 0 0 -1 
1 0 0 1 0 
1 14.539690740016736 99.999999999999986 -1 0 
1 4.4e-16 -5 1 0 
1 14.539690740016736 99.999999999999986 -1 0 
1 5 0 0 -1 
1 1.5707963267948972 0 0 -1 
1 0 0 1 0 
1 6.5396907400167379 99.999999999999986 0 -1 
1 0 -5 1 0 
1 6.5396907400167379 99.999999999999986 0 -1 
1 3.1415926535897931 0 0 -1 
1 6.2831853071795862 0 0 -1 
1 0 0 1 0 
2 -0.96030925998326033 94.999999999999986 0 1 1 -0 7.5
1 0 -5 1 0 
2 -0.96030925998326033 94.999999999999986 0 1 1 -0 7.5
1 4.7123889803846897 0 0 -1 
1 139.99999999999997 0 0 -1 
1 0 0 1 0 
2 -0.96030925998326033 69.999999999999986 0 1 1 -0 17.5
1 0 -5 1 0 
2 -0.96030925998326033 69.999999999999986 0 1 1 -0 17.5
1 0 0 0 -1 
1 4.7123889803846897 0 0 -1 
1 0 0 1 0 
1 -18.460309259983262 -69.999999999999986 0 1 
1 0 -5 1 0 
1 -18.460309259983262 -69.999999999999986 0 1 
1 3.1415926535897931 0 0 -1 
1 6.0000000000000001e-17 0 0 -1 
1 0 0 1 0 
2 -0.96030925998326033 -69.999999999999986 0 1 1 -0 17.5
1 0 -5 1 0 
2 -0.96030925998326033 -69.999999999999986 0 1 1 -0 17.5
1 0 0 1 0 
2 -0.96030925998326033 -94.999999999999986 0 1 1 -0 7.5
1 0 -5 1 0 
2 -0.96030925998326033 -94.999999999999986 0 1 1 -0 7.5
Curves 30
1 -94.999999999999986 -2.2200000000000002e-15 -4.9999999999999982 0 -1 3.2999999999999999e-16 
1 -99.999999999999986 -2.2200000000000002e-15 -4.9999999999999982 0 -1 3.2999999999999999e-16 
1 -95 -4.9999999999999991 0 -1 0 0 
1 -95 -4.9999999999999991 0 -1 0 0 
1 -99.999999999999986 1.3299999999999999e-15 2.9999999999999996 0 -1 3.2999999999999999e-16 
1 -100 -4.9999999999999991 0 0 1 0 
1 -100 -4.9999999999999991 0 0 1 0 
1 99.999999999999986 1.3299999999999999e-15 2.9999999999999996 0 -1 3.2999999999999999e-16 
1 -100 3 0 1 0 0 
1 -100 3 0 1 0 0 
1 99.999999999999986 -2.2200000000000002e-15 -4.9999999999999982 0 -1 3.2999999999999999e-16 
1 100 3 0 0 -1 0 
1 100 3 0 0 -1 0 
1 94.999999999999986 -2.2200000000000002e-15 -4.9999999999999982 0 -1 3.2999999999999999e-16 
1 100 -4.9999999999999991 0 -1 0 0 
1 100 -4.9999999999999991 0 -1 0 0 
1 87.499999999999986 -5.5499999999999999e-15 -12.499999999999998 0 -1 3.2999999999999999e-16 
2 95 -12.499999999999998 0 0 0 1 1 0 -0 -0 1 0 7.4999999999999991
2 95 -12.499999999999998 0 0 0 1 1 0 -0 -0 1 0 7.4999999999999991
1 69.999999999999986 -1.332e-14 -29.999999999999996 0 -1 3.2999999999999999e-16 
2 70 -12.499999999999998 0 0 0 1 1 0 -0 -0 1 0 17.5
2 70 -12.499999999999998 0 0 0 1 1 0 -0 -0 1 0 17.5
1 -69.999999999999986 -1.332e-14 -29.999999999999996 0 -1 3.2999999999999999e-16 
1 -70 -30 0 1 0 0 
1 -70 -30 0 1 0 0 
1 -87.499999999999986 -5.5499999999999999e-15 -12.499999999999995 0 -1 3.2999999999999999e-16 
2 -70 -12.499999999999998 0 0 0 1 1 0 -0 -0 1 0 17.5
2 -70 -12.499999999999998 0 0 0 1 1 0 -0 -0 1 0 17.5
2 -95 -12.499999999999998 0 0 0 1 1 0 -0 -0 1 0 7.4999999999999991
2 -95 -12.499999999999998 0 0 0 1 1 0 -0 -0 1 0 7.4999999999999991
Polygon3D 0
PolygonOnTriangulations 0
Surfaces 12
1 -94.999999999999986 -2.2200000000000002e-15 -4.9999999999999982 -0 -3.2999999999999999e-16 -1 -1 0 0 0 1 -3.2999999999999999e-16 
2 -94.999999999999986 -5.5499999999999999e-15 -12.499999999999996 -0 1 -4.4e-16 1 0 0 -0 4.4e-16 1 7.4999999999999982
1 -99.999999999999986 -2.2200000000000002e-15 -4.9999999999999982 -1 0 0 0 4.4e-16 1 0 1 -4.4e-16 
1 0 -5.1200000000000004e-15 -11.539690740016736 -0 1 -4.4e-16 0 4.4e-16 1 1 0 -0 
1 0 -5.1200000000000004e-15 -11.539690740016736 -0 1 -4.4e-16 0 4.4e-16 1 1 0 -0 
1 -99.999999999999986 1.3299999999999999e-15 2.9999999999999996 -0 3.2999999999999999e-16 1 1 0 0 0 1 -3.2999999999999999e-16 
1 99.999999999999986 1.3299999999999999e-15 2.9999999999999996 1 0 0 0 -4.4e-16 -1 0 1 -4.4e-16 
1 99.999999999999986 -2.2200000000000002e-15 -4.9999999999999982 -0 -3.2999999999999999e-16 -1 -1 0 0 0 1 -3.2999999999999999e-16 
2 94.999999999999986 -5.5499999999999999e-15 -12.499999999999996 -0 1 -4.4e-16 1 0 0 -0 4.4e-16 1 7.4999999999999982
2 69.999999999999986 -5.5499999999999999e-15 -12.499999999999996 -0 1 -4.4e-16 1 0 0 -0 4.4e-16 1 17.499999999999996
1 -69.999999999999986 -1.332e-14 -29.999999999999996 -0 3.2999999999999999e-16 1 1 0 0 0 1 -3.2999999999999999e-16 
2 -69.999999999999986 -5.5499999999999999e-15 -12.499999999999996 -0 1 -4.4e-16 1 0 0 -0 4.4e-16 1 17.499999999999996
Triangulations 0

TShapes 77
Ve
1e-07
-95 -2e-15 -5
0 0

0101101
*
Ve
1e-07
-95 -5 -5
0 0

0101101
*
Ed
 1e-07 1 1 0
1  1 0 0 5
2  1 1 0 0 5
2  2 2 0 0 5
4 G1 1 0 2 0
0

0101000
+77 2 -76 2 *
Ve
1e-07
-100 -2e-15 -5
0 0

0101101
*
Ve
1e-07
-100 -5 -5
0 0

0101101
*
Ed
 1e-07 1 1 0
1  2 0 0 5
2  3 1 0 0 5
2  4 3 0 0 5
0

0101000
+74 2 -73 2 *
Ed
 1e-07 1 1 0
1  3 0 0 5
2  5 1 4 0 5
2  6 4 4 0 5
0

0101000
+77 5 -74 5 *
Ed
 1e-07 1 1 0
1  4 0 0 5
2  7 1 8 0 5
2  8 5 4 0 5
0

0101000
+76 9 -73 9 *
Wi

0101100
+75 0 -72 0 -71 3 +70 7 *
Fa
0  1e-07 1 0

0111000
+69 0 *
Ve
1e-07
-100 1e-15 3
0 0

0101101
*
Ve
1e-07
-100 -5 3
0 0

0101101
*
Ed
 1e-07 1 1 0
1  5 0 0 5
2  9 3 0 0 5
2  10 6 0 0 5
0

0101000
+67 2 -66 2 *
Ed
 1e-07 1 1 0
1  6 0 0 8
2  11 3 4 0 8
2  12 4 4 0 8
0

0101000
+74 5 -67 5 *
Ed
 1e-07 1 1 0
1  7 0 0 8
2  13 3 8 0 8
2  14 5 4 0 8
0

0101000
+73 9 -66 9 *
Wi

0101100
+72 0 -65 0 -64 3 +63 7 *
Fa
0  1e-07 3 0

0111000
+62 0 *
Ve
1e-07
100 1e-15 3
0 0

0101101
*
Ve
1e-07
100 -5 3
0 0

0101101
*
Ed
 1e-07 1 1 0
1  8 0 0 5
2  15 6 0 0 5
2  16 7 0 0 5
0

0101000
+60 2 -59 2 *
Ed
 1e-07 1 1 0
1  9 0 0 200
2  17 6 4 0 200
2  18 4 4 0 200
0

0101000
+67 5 -60 5 *
Ed
 1e-07 1 1 0
1  10 0 0 200
2  19 6 8 0 200
2  20 5 4 0 200
0

0101000
+66 9 -59 9 *
Wi

0101100
+65 0 -58 0 -57 3 +56 7 *
Fa
0  1e-07 6 0

0111000
+55 0 *
Ve
1e-07
100 -2e-15 -5
0 0

0101101
*
Ve
1e-07
100 -5 -5
0 0

0101101
*
Ed
 1e-07 1 1 0
1  11 0 0 5
2  21 7 0 0 5
2  22 8 0 0 5
0

0101000
+53 2 -52 2 *
Ed
 1e-07 1 1 0
1  12 0 0 8
2  23 7 4 0 8
2  24 4 4 0 8
0

0101000
+60 5 -53 5 *
Ed
 1e-07 1 1 0
1  13 0 0 8
2  25 7 8 0 8
2  26 5 4 0 8
0

0101000
+59 9 -52 9 *
Wi

0101100
+58 0 -51 0 -50 3 +49 7 *
Fa
0  1e-07 7 0

0111000
+48 0 *
Ve
1e-07
95 -2e-15 -5
0 0

0101101
*
Ve
1e-07
95 -5 -5
0 0

0101101
*
Ed
 1e-07 1 1 0
1  14 0 0 5
2  27 8 0 0 5
2  28 9 0 0 5
4 G1 8 0 9 0
0

0101000
+46 2 -45 2 *
Ed
 1e-07 1 1 0
1  15 0 0 5
2  29 8 4 0 5
2  30 4 4 0 5
0

0101000
+53 5 -46 5 *
Ed
 1e-07 1 1 0
1  16 0 0 5
2  31 8 8 0 5
2  32 5 4 0 5
0

0101000
+52 9 -45 9 *
Wi

0101100
+51 0 -44 0 -43 3 +42 7 *
Fa
0  1e-07 8 0

0111000
+41 0 *
Ve
1.00000003e-07
87.5 -6e-15 -12.5
0 0

0101101
*
Ve
1.00000003e-07
87.5 -5.00000000000001 -12.5
0 0

0101101
*
Ed
 1.00000003e-07 1 1 0
1  17 0 0 5
2  33 9 0 0 5
2  34 10 0 0 5
4 G1 9 0 10 0
0

0101000
+39 2 -38 2 *
Ed
 1e-07 1 1 0
1  18 0 1.5707963267949 3.14159265358979
2  35 9 4 1.5707963267949 3.14159265358979
2  36 4 4 1.5707963267949 3.14159265358979
0

0101000
+46 5 -39 5 *
Ed
 1e-07 1 1 0
1  19 0 1.5707963267949 3.14159265358979
2  37 9 8 1.5707963267949 3.14159265358979
2  38 5 4 1.5707963267949 3.14159265358979
0

0101000
+45 9 -38 9 *
Wi

0101100
+44 0 -37 0 -36 3 +35 7 *
Fa
0  1e-07 9 0

0111000
+34 0 *
Ve
1e-07
70 -1.3e-14 -30
0 0

0101101
*
Ve
1e-07
70 -5.00000000000001 -30
0 0

0101101
*
Ed
 1e-07 1 1 0
1  20 0 0 5
2  39 10 0 0 5
2  40 11 0 0 5
4 G1 10 0 11 0
0

0101000
+32 2 -31 2 *
Ed
 1e-07 1 1 0
1  21 0 4.71238898038469 6.28318530717959
2  41 10 4 4.71238898038469 6.28318530717959
2  42 4 4 4.71238898038469 6.28318530717959
0

0101000
+32 5 -39 5 *
Ed
 1e-07 1 1 0
1  22 0 4.71238898038469 6.28318530717959
2  43 10 8 4.71238898038469 6.28318530717959
2  44 5 4 4.71238898038469 6.28318530717959
0

0101000
+31 9 -38 9 *
Wi

0101100
+30 0 -37 0 -29 3 +28 7 *
Fa
0  1e-07 10 0

0111000
+27 0 *
Ve
1e-07
-70 -1.3e-14 -30
0 0

0101101
*
Ve
1e-07
-70 -5.00000000000001 -30
0 0

0101101
*
Ed
 1e-07 1 1 0
1  23 0 0 5
2  45 11 0 0 5
2  46 12 0 0 5
4 G1 11 0 12 0
0

0101000
+25 2 -24 2 *
Ed
 1e-07 1 1 0
1  24 0 0 140
2  47 11 4 0 140
2  48 4 4 0 140
0

0101000
+25 5 -32 5 *
Ed
 1e-07 1 1 0
1  25 0 0 140
2  49 11 8 0 140
2  50 5 4 0 140
0

0101000
+24 9 -31 9 *
Wi

0101100
+23 0 -30 0 -22 3 +21 7 *
Fa
0  1e-07 11 0

0111000
+20 0 *
Ve
1.00000001e-07
-87.5 -6e-15 -12.5
0 0

0101101
*
Ve
1.00000001e-07
-87.5 -5.00000000000001 -12.5
0 0

0101101
*
Ed
 1.00000001e-07 1 1 0
1  26 0 0 5
2  51 12 0 0 5
2  52 2 0 0 5
4 G1 12 0 2 0
0

0101000
+18 2 -17 2 *
Ed
 1e-07 1 1 0
1  27 0 3.14159265358979 4.71238898038469
2  53 12 4 3.14159265358979 4.71238898038469
2  54 4 4 3.14159265358979 4.71238898038469
0

0101000
+18 5 -25 5 *
Ed
 1e-07 1 1 0
1  28 0 3.14159265358979 4.71238898038469
2  55 12 8 3.14159265358979 4.71238898038469
2  56 5 4 3.14159265358979 4.71238898038469
0

0101000
+17 9 -24 9 *
Wi

0101100
+16 0 -23 0 -15 3 +14 7 *
Fa
0  1e-07 12 0

0111000
+13 0 *
Ed
 1e-07 1 1 0
1  29 0 0 1.5707963267949
2  57 2 4 0 1.5707963267949
2  58 4 4 0 1.5707963267949
0

0101000
+18 5 -77 5 *
Ed
 1e-07 1 1 0
1  30 0 0 1.5707963267949
2  59 2 8 0 1.5707963267949
2  60 5 4 0 1.5707963267949
0

0101000
+17 9 -76 9 *
Wi

0101100
+16 0 -75 0 -11 3 +10 7 *
Fa
0  1e-07 2 0

0111000
+9 0 *
Wi

0101100
+71 0 +64 0 +57 0 +50 0 +43 0 +36 0 -29 0 -22 0 -15 0 +11 0 
*
Fa
0  1e-07 4 0

0111000
+7 3 *
Wi

0101100
+70 0 +63 0 +56 0 +49 0 +42 0 +35 0 -28 0 -21 0 -14 0 +10 0 
*
Fa
0  1e-07 5 0

0111000
+5 3 *
Sh

0101100
+68 0 +61 0 +54 0 +47 0 +40 0 +33 0 -26 0 -19 0 -12 0 +8 0 
+6 0 -4 6 *
So

0100000
+3 0 *
Co

1100000
+2 1 *

+1 0 